<?xml version="1.0" encoding="UTF-8"?><svg xmlns="http://www.w3.org/2000/svg" xmlns:xlink="http://www.w3.org/1999/xlink" stroke-dasharray="none" shape-rendering="auto" font-family="'Dialog'" width="601" text-rendering="auto" fill-opacity="1" contentScriptType="text/ecmascript" color-interpolation="auto" color-rendering="auto" preserveAspectRatio="xMidYMid meet" font-size="12" viewBox="0 0 601 241" fill="black" stroke="black" image-rendering="auto" stroke-miterlimit="10" zoomAndPan="magnify" version="1.0" stroke-linecap="square" stroke-linejoin="miter" contentStyleType="text/css" font-style="normal" height="241" stroke-width="1" stroke-dashoffset="0" font-weight="normal" stroke-opacity="1">
<!--Generated by the Batik Graphics2D SVG Generator-->
<defs id="genericDefs"/>
<g>
<defs id="defs1">
<linearGradient x1="10" x2="10" y1="10" gradientUnits="userSpaceOnUse" y2="231" xlink:type="simple" xlink:actuate="onLoad" id="linearGradient1" xlink:show="other" spreadMethod="pad">
<stop stop-opacity="1" stop-color="white" offset="0%"/>
<stop stop-opacity="1" stop-color="rgb(195,209,213)" offset="100%"/>
</linearGradient>
<linearGradient x1="30" x2="30" y1="70" gradientUnits="userSpaceOnUse" y2="111" xlink:type="simple" xlink:actuate="onLoad" id="linearGradient2" xlink:show="other" spreadMethod="pad">
<stop stop-opacity="1" stop-color="white" offset="0%"/>
<stop stop-opacity="1" stop-color="rgb(195,209,213)" offset="100%"/>
</linearGradient>
<linearGradient x1="230" x2="230" y1="70" gradientUnits="userSpaceOnUse" y2="111" xlink:type="simple" xlink:actuate="onLoad" id="linearGradient3" xlink:show="other" spreadMethod="pad">
<stop stop-opacity="1" stop-color="white" offset="0%"/>
<stop stop-opacity="1" stop-color="rgb(195,209,213)" offset="100%"/>
</linearGradient>
<linearGradient x1="430" x2="430" y1="70" gradientUnits="userSpaceOnUse" y2="111" xlink:type="simple" xlink:actuate="onLoad" id="linearGradient4" xlink:show="other" spreadMethod="pad">
<stop stop-opacity="1" stop-color="white" offset="0%"/>
<stop stop-opacity="1" stop-color="rgb(195,209,213)" offset="100%"/>
</linearGradient>
<linearGradient x1="230" x2="230" y1="170" gradientUnits="userSpaceOnUse" y2="211" xlink:type="simple" xlink:actuate="onLoad" id="linearGradient5" xlink:show="other" spreadMethod="pad">
<stop stop-opacity="1" stop-color="white" offset="0%"/>
<stop stop-opacity="1" stop-color="rgb(195,209,213)" offset="100%"/>
</linearGradient>
<clipPath clipPathUnits="userSpaceOnUse" id="clipPath1">
<path d="M10 10 L10 230 L590 230 L590 10 Z"/>
</clipPath>
<clipPath clipPathUnits="userSpaceOnUse" id="clipPath2">
<path d="M275 12 L327 12 L327 29 L275 29 L275 12 Z"/>
</clipPath>
<clipPath clipPathUnits="userSpaceOnUse" id="clipPath3">
<path d="M287 28 L316 28 L316 45 L287 45 L287 28 Z"/>
</clipPath>
<clipPath clipPathUnits="userSpaceOnUse" id="clipPath4">
<path d="M30 70 L30 110 L170 110 L170 70 Z"/>
</clipPath>
<clipPath clipPathUnits="userSpaceOnUse" id="clipPath5">
<path d="M75 74 L127 74 L127 91 L75 91 L75 74 Z"/>
</clipPath>
<clipPath clipPathUnits="userSpaceOnUse" id="clipPath6">
<path d="M67 90 L135 90 L135 107 L67 107 L67 90 Z"/>
</clipPath>
<clipPath clipPathUnits="userSpaceOnUse" id="clipPath7">
<path d="M29 69 L172 69 L172 112 L29 112 L29 69 Z"/>
</clipPath>
<clipPath clipPathUnits="userSpaceOnUse" id="clipPath8">
<path d="M230 70 L230 110 L370 110 L370 70 Z"/>
</clipPath>
<clipPath clipPathUnits="userSpaceOnUse" id="clipPath9">
<path d="M275 74 L327 74 L327 91 L275 91 L275 74 Z"/>
</clipPath>
<clipPath clipPathUnits="userSpaceOnUse" id="clipPath10">
<path d="M279 90 L324 90 L324 107 L279 107 L279 90 Z"/>
</clipPath>
<clipPath clipPathUnits="userSpaceOnUse" id="clipPath11">
<path d="M229 69 L372 69 L372 112 L229 112 L229 69 Z"/>
</clipPath>
<clipPath clipPathUnits="userSpaceOnUse" id="clipPath12">
<path d="M430 70 L430 110 L570 110 L570 70 Z"/>
</clipPath>
<clipPath clipPathUnits="userSpaceOnUse" id="clipPath13">
<path d="M475 74 L527 74 L527 91 L475 91 L475 74 Z"/>
</clipPath>
<clipPath clipPathUnits="userSpaceOnUse" id="clipPath14">
<path d="M470 90 L532 90 L532 107 L470 107 L470 90 Z"/>
</clipPath>
<clipPath clipPathUnits="userSpaceOnUse" id="clipPath15">
<path d="M429 69 L572 69 L572 112 L429 112 L429 69 Z"/>
</clipPath>
<clipPath clipPathUnits="userSpaceOnUse" id="clipPath16">
<path d="M230 170 L230 210 L370 210 L370 170 Z"/>
</clipPath>
<clipPath clipPathUnits="userSpaceOnUse" id="clipPath17">
<path d="M275 174 L327 174 L327 191 L275 191 L275 174 Z"/>
</clipPath>
<clipPath clipPathUnits="userSpaceOnUse" id="clipPath18">
<path d="M283 190 L319 190 L319 207 L283 207 L283 190 Z"/>
</clipPath>
<clipPath clipPathUnits="userSpaceOnUse" id="clipPath19">
<path d="M229 169 L372 169 L372 212 L229 212 L229 169 Z"/>
</clipPath>
<clipPath clipPathUnits="userSpaceOnUse" id="clipPath20">
<path d="M10 44 L592 44 L592 232 L10 232 L10 44 Z"/>
</clipPath>
<clipPath clipPathUnits="userSpaceOnUse" id="clipPath21">
<path d="M9 9 L592 9 L592 232 L9 232 L9 9 Z"/>
</clipPath>
<clipPath clipPathUnits="userSpaceOnUse" id="clipPath22">
<path d="M-1 -1 L602 -1 L602 242 L-1 242 L-1 -1 Z"/>
</clipPath>
<clipPath clipPathUnits="userSpaceOnUse" id="clipPath23">
<path d="M370 184 L388 184 L388 197 L370 197 L370 184 Z"/>
</clipPath>
<clipPath clipPathUnits="userSpaceOnUse" id="clipPath24">
<path d="M294 154 L307 154 L307 172 L294 172 L294 154 Z"/>
</clipPath>
<clipPath clipPathUnits="userSpaceOnUse" id="clipPath25">
<path d="M214 84 L232 84 L232 97 L214 97 L214 84 Z"/>
</clipPath>
<clipPath clipPathUnits="userSpaceOnUse" id="clipPath26">
<path d="M414 84 L432 84 L432 97 L414 97 L414 84 Z"/>
</clipPath>
<clipPath clipPathUnits="userSpaceOnUse" id="clipPath27">
<path d="M214 184 L232 184 L232 197 L214 197 L214 184 Z"/>
</clipPath>
</defs>
<g fill="url(#linearGradient1)" font-family="'Segoe UI'" stroke-linejoin="round" stroke="url(#linearGradient1)" stroke-width="0" stroke-miterlimit="0">
<rect x="10" y="10" clip-path="url(#clipPath1)" width="581" height="221" stroke="none"/>
<text x="276" y="26" clip-path="url(#clipPath2)" fill="black" stroke="none" xml:space="preserve">«artifact»</text>
<text x="288" y="42" clip-path="url(#clipPath3)" fill="black" stroke="none" xml:space="preserve">WAR</text>
<rect x="30" y="70" clip-path="url(#clipPath4)" fill="url(#linearGradient2)" width="141" height="41" stroke="none"/>
<text x="76" y="88" clip-path="url(#clipPath5)" fill="black" stroke="none" xml:space="preserve">«artifact»</text>
<text x="68" y="104" clip-path="url(#clipPath6)" fill="black" stroke="none" xml:space="preserve">Presentation</text>
</g>
<g stroke-width="1.1" font-family="'Segoe UI'" stroke-linecap="butt">
<rect x="30" y="70" clip-path="url(#clipPath7)" fill="none" width="140" rx="0" ry="0" height="40"/>
<rect x="230" y="70" clip-path="url(#clipPath8)" fill="url(#linearGradient3)" width="141" height="41" stroke="none"/>
<text xml:space="preserve" x="276" y="88" clip-path="url(#clipPath9)" stroke="none">«artifact»</text>
<text xml:space="preserve" x="280" y="104" clip-path="url(#clipPath10)" stroke="none">Services</text>
<rect x="230" y="70" clip-path="url(#clipPath11)" fill="none" width="140" rx="0" ry="0" height="40"/>
<rect x="430" y="70" clip-path="url(#clipPath12)" fill="url(#linearGradient4)" width="141" height="41" stroke="none"/>
<text xml:space="preserve" x="476" y="88" clip-path="url(#clipPath13)" stroke="none">«artifact»</text>
<text xml:space="preserve" x="471" y="104" clip-path="url(#clipPath14)" stroke="none">Persistence</text>
<rect x="430" y="70" clip-path="url(#clipPath15)" fill="none" width="140" rx="0" ry="0" height="40"/>
<rect x="230" y="170" clip-path="url(#clipPath16)" fill="url(#linearGradient5)" width="141" height="41" stroke="none"/>
<text xml:space="preserve" x="276" y="188" clip-path="url(#clipPath17)" stroke="none">«artifact»</text>
<text xml:space="preserve" x="284" y="204" clip-path="url(#clipPath18)" stroke="none">Model</text>
<rect x="230" y="170" clip-path="url(#clipPath19)" fill="none" width="140" rx="0" ry="0" height="40"/>
<line clip-path="url(#clipPath20)" fill="none" x1="10" x2="591" y1="45" y2="45"/>
<rect x="10" y="10" clip-path="url(#clipPath21)" fill="none" width="580" rx="0" ry="0" height="220"/>
<line clip-path="url(#clipPath22)" fill="none" text-rendering="optimizeLegibility" x1="490" x2="490" y1="111" y2="190" stroke-dasharray="5,5,5,5,5,5,5,5,5,5"/>
<line clip-path="url(#clipPath22)" fill="none" text-rendering="optimizeLegibility" x1="490" x2="371" y1="190" y2="190" stroke-dasharray="5,5,5,5,5,5,5,5,5,5"/>
<line clip-path="url(#clipPath23)" fill="none" text-rendering="optimizeLegibility" x1="386" x2="371" y1="185" y2="190"/>
<line clip-path="url(#clipPath23)" fill="none" text-rendering="optimizeLegibility" x1="371" x2="386" y1="190" y2="195"/>
<line clip-path="url(#clipPath22)" fill="none" text-rendering="optimizeLegibility" x1="300" x2="300" y1="111" y2="170" stroke-dasharray="5,5,5,5,5,5,5,5,5,5"/>
<line clip-path="url(#clipPath24)" fill="none" text-rendering="optimizeLegibility" x1="295" x2="300" y1="155" y2="170"/>
<line clip-path="url(#clipPath24)" fill="none" text-rendering="optimizeLegibility" x1="300" x2="305" y1="170" y2="155"/>
<line clip-path="url(#clipPath22)" fill="none" text-rendering="optimizeLegibility" x1="171" x2="230" y1="90" y2="90" stroke-dasharray="5,5,5,5,5,5,5,5,5,5"/>
<line clip-path="url(#clipPath25)" fill="none" text-rendering="optimizeLegibility" x1="215" x2="230" y1="95" y2="90"/>
<line clip-path="url(#clipPath25)" fill="none" text-rendering="optimizeLegibility" x1="230" x2="215" y1="90" y2="85"/>
<line clip-path="url(#clipPath22)" fill="none" text-rendering="optimizeLegibility" x1="371" x2="430" y1="90" y2="90" stroke-dasharray="5,5,5,5,5,5,5,5,5,5"/>
<line clip-path="url(#clipPath26)" fill="none" text-rendering="optimizeLegibility" x1="415" x2="430" y1="95" y2="90"/>
<line clip-path="url(#clipPath26)" fill="none" text-rendering="optimizeLegibility" x1="430" x2="415" y1="90" y2="85"/>
<line clip-path="url(#clipPath22)" fill="none" text-rendering="optimizeLegibility" x1="110" x2="110" y1="111" y2="190" stroke-dasharray="5,5,5,5,5,5,5,5,5,5"/>
<line clip-path="url(#clipPath22)" fill="none" text-rendering="optimizeLegibility" x1="110" x2="230" y1="190" y2="190" stroke-dasharray="5,5,5,5,5,5,5,5,5,5"/>
<line clip-path="url(#clipPath27)" fill="none" text-rendering="optimizeLegibility" x1="215" x2="230" y1="195" y2="190"/>
<line clip-path="url(#clipPath27)" fill="none" text-rendering="optimizeLegibility" x1="230" x2="215" y1="190" y2="185"/>
<line clip-path="url(#clipPath22)" fill="none" text-rendering="optimizeLegibility" x1="171" x2="230" y1="90" y2="90" stroke-dasharray="5,5,5,5,5,5,5,5,5,5"/>
<line clip-path="url(#clipPath25)" fill="none" text-rendering="optimizeLegibility" x1="215" x2="230" y1="95" y2="90"/>
<line clip-path="url(#clipPath25)" fill="none" text-rendering="optimizeLegibility" x1="230" x2="215" y1="90" y2="85"/>
<line clip-path="url(#clipPath22)" fill="none" text-rendering="optimizeLegibility" x1="371" x2="430" y1="90" y2="90" stroke-dasharray="5,5,5,5,5,5,5,5,5,5"/>
<line clip-path="url(#clipPath26)" fill="none" text-rendering="optimizeLegibility" x1="415" x2="430" y1="95" y2="90"/>
<line clip-path="url(#clipPath26)" fill="none" text-rendering="optimizeLegibility" x1="430" x2="415" y1="90" y2="85"/>
<line clip-path="url(#clipPath22)" fill="none" text-rendering="optimizeLegibility" x1="110" x2="110" y1="111" y2="190" stroke-dasharray="5,5,5,5,5,5,5,5,5,5"/>
<line clip-path="url(#clipPath22)" fill="none" text-rendering="optimizeLegibility" x1="110" x2="230" y1="190" y2="190" stroke-dasharray="5,5,5,5,5,5,5,5,5,5"/>
<line clip-path="url(#clipPath27)" fill="none" text-rendering="optimizeLegibility" x1="215" x2="230" y1="195" y2="190"/>
<line clip-path="url(#clipPath27)" fill="none" text-rendering="optimizeLegibility" x1="230" x2="215" y1="190" y2="185"/>
<line clip-path="url(#clipPath22)" fill="none" text-rendering="optimizeLegibility" x1="490" x2="490" y1="111" y2="190" stroke-dasharray="5,5,5,5,5,5,5,5,5,5"/>
<line clip-path="url(#clipPath22)" fill="none" text-rendering="optimizeLegibility" x1="490" x2="371" y1="190" y2="190" stroke-dasharray="5,5,5,5,5,5,5,5,5,5"/>
<line clip-path="url(#clipPath23)" fill="none" text-rendering="optimizeLegibility" x1="386" x2="371" y1="185" y2="190"/>
<line clip-path="url(#clipPath23)" fill="none" text-rendering="optimizeLegibility" x1="371" x2="386" y1="190" y2="195"/>
<line clip-path="url(#clipPath22)" fill="none" text-rendering="optimizeLegibility" x1="300" x2="300" y1="111" y2="170" stroke-dasharray="5,5,5,5,5,5,5,5,5,5"/>
<line clip-path="url(#clipPath24)" fill="none" text-rendering="optimizeLegibility" x1="295" x2="300" y1="155" y2="170"/>
<line clip-path="url(#clipPath24)" fill="none" text-rendering="optimizeLegibility" x1="300" x2="305" y1="170" y2="155"/>
</g>
</g>
</svg>
